<svg xmlns="http://www.w3.org/2000/svg" version="1.1" viewBox="-5.0 -10.0 110.0 135.0">
 <path d="m32.43 22.633c-1.6562 0-2.5469 0.88672-2.9219 1.7422-0.22656 0.52344-0.28125 0.96094-0.29687 1.2852-7.2148-0.097656-10.465 4.7617-10.824 5.3359-3.2148-0.30859-5.0391 0.058594-6.0781 0.70312-1.0664 0.66016-1.2539 1.625-1.2539 2.125v3.1602c0 0.71875 0.42969 1.3242 1.0664 1.8594 0.63672 0.53516 1.5078 1.0508 2.5703 1.6602 7.9414 4.5625 26.645 13.645 28.363 32.676-0.4375 0.070312-1.5664 0.27344-2.9219 0.74219-0.82422 0.28516-1.6523 0.65234-2.3008 1.1367-0.64844 0.48828-1.1406 1.1367-1.1211 1.9375l0.003906-0.003906c0.007812 0.21094 0.17578 0.375 0.38672 0.375h14.883c0.15625 0 0.30078-0.097657 0.35547-0.24609 0 0 0.99219-2.5781 1.8789-5.7461 0.83203-2.9766 1.582-6.4453 1.3008-8.9336 1.0586 0.0625 5.3125 0.37891 10.074 1.8633 5.3242 1.6602 10.938 4.7383 12.676 10.383-0.36719 0.050781-0.86719 0.13672-1.457 0.31641-0.48828 0.14844-0.99219 0.35547-1.4062 0.66016-0.41406 0.30469-0.75 0.74609-0.77734 1.3047l0.003906-0.003906c-0.003906 0.10547 0.035157 0.20703 0.10547 0.28125 0.074219 0.078125 0.17578 0.12109 0.28125 0.12109h11.996-0.003906c0.19531 0 0.35938-0.14453 0.38281-0.33984 1.1953-10.176 1.8477-16.789 1.4141-22.117-0.42969-5.3281-1.9609-9.3633-5.0781-14.27-6.1328-9.6602-13.898-12.582-20.625-12.898-6.7266-0.31641-12.465 1.9414-14.508 2.4844-1.8359 0.48828-3.7969-0.35937-6.0039-1.4062-2.1016-0.99609-4.4062-2.1406-7.0039-2.25 0-0.37109-0.023438-0.96484-0.26562-1.7109-0.17188-0.53125-0.44922-1.0859-0.92188-1.5156s-1.1367-0.71094-1.9805-0.71094zm-6.8555 25.938v-0.003906c-0.046875-0.003906-0.09375 0-0.13672 0.011719-0.1875 0.046875-0.3125 0.22656-0.28906 0.41797 0 0 0.56641 4.6719 0.88672 9.9336 0.16016 2.6289 0.26172 5.4062 0.20312 7.8086-0.058593 2.2812-0.27734 4.2109-0.67969 5.3281-0.32031 0.035156-1.2734 0.15234-2.4297 0.48047-0.68359 0.19531-1.3867 0.45312-1.9609 0.8125-0.57422 0.36328-1.0547 0.85156-1.1523 1.5117v-0.003906c-0.015625 0.11328 0.015625 0.22266 0.089844 0.30859 0.074219 0.085938 0.17969 0.13281 0.29297 0.13281h12.348-0.003906c0.15234 0 0.29297-0.089844 0.35547-0.23047 0 0 1.043-2.3828 2.168-5.2812s2.332-6.2852 2.668-8.4141l-0.003906 0.003907c0.015624-0.089844-0.003907-0.17578-0.046876-0.25391-1.1328-1.9648-6.3164-9.4922-12.176-12.523-0.042969-0.023437-0.085937-0.035156-0.13281-0.042969zm36.238 15.98c-0.17969-0.003906-0.34375 0.12109-0.38281 0.30078l-1.9023 8.4219c-0.32812 0.03125-1.0586 0.11328-1.9766 0.38281-0.58203 0.17188-1.1797 0.40625-1.6758 0.75781-0.5 0.35156-0.91016 0.83984-1 1.4766-0.035156 0.23047 0.14453 0.44141 0.37891 0.44141h12.984c0.13672 0 0.26172-0.070312 0.32812-0.1875l3.8906-6.4688c0.070313-0.12109 0.070313-0.26953 0-0.39062-0.66016-1.1094-2.7852-2.082-4.4258-2.8047-2.043-0.9375-4.375-1.6992-6.1797-1.9258-0.015624 0-0.023437 0-0.039062-0.003907z"/>
</svg>