<svg width="48" height="49" viewBox="0 0 48 49" fill="none" xmlns="http://www.w3.org/2000/svg">
<path d="M25.3164 47.0557C24.4607 47.0554 23.6762 46.7365 23.0771 46.1621L23.0498 46.1367L2.79297 27.6387L2.79297 27.6397C1.97682 26.8938 1.49902 25.8147 1.49902 24.5479C1.4991 23.419 1.9082 22.4223 2.63769 21.6816L2.78711 21.5371L2.78808 21.5371L23.0771 2.94824L23.0908 2.93653L23.1035 2.92383C23.657 2.39167 24.4079 2.08083 25.3398 2.05664C26.1245 2.06271 26.8643 2.34945 27.4482 2.87695L27.5644 2.98731C28.1707 3.59368 28.5018 4.39277 28.5019 5.25L28.499 11.793L28.499 11.7939C28.4992 13.0392 29.5096 14.0497 30.7549 14.0498L44.2432 14.0498C45.4862 14.0499 46.499 15.0626 46.499 16.3057L46.499 32.7949C46.499 34.0361 45.4866 35.0497 44.2432 35.0498L30.7539 35.0498C29.5067 35.0498 28.4993 36.0619 28.499 37.3037L28.4961 43.8643L28.4961 43.8652C28.4961 45.6152 27.0674 47.0488 25.3164 47.0557Z"/>
</svg>
