<svg xmlns="http://www.w3.org/2000/svg" xmlns:xlink="http://www.w3.org/1999/xlink" version="1.1" x="0px" y="0px" viewBox="0 0 32 32" style="enable-background:new 0 0 32 32;" xml:space="preserve"><g><path d="M16.879,32.004c-0.826,0-1.598-0.311-2.186-0.874L1.188,18.797C0.422,18.1,0,17.105,0,15.999   c0-1.071,0.42-2.046,1.183-2.745L14.71,0.862c0.571-0.548,1.343-0.858,2.156-0.858c0.003,0,0.007,0,0.011,0   c0.83,0,1.614,0.324,2.205,0.913c0.593,0.591,0.92,1.379,0.92,2.217L20,7.496C20,7.774,20.226,8,20.504,8h8.992   C30.877,8,32,9.123,32,10.504v10.992C32,22.877,30.877,24,29.496,24h-8.993c-0.277,0-0.504,0.227-0.504,0.504l-0.002,4.372   C19.997,30.595,18.599,31.998,16.879,32.004z M16.874,2.004c-0.001,0-0.003,0-0.004,0c-0.299,0-0.579,0.113-0.792,0.317   L2.534,14.728C2.189,15.043,2,15.495,2,15.999c0,0.38,0.093,0.917,0.536,1.321L16.06,29.67c0.231,0.221,0.512,0.334,0.807,0.334   c0.625-0.002,1.13-0.508,1.13-1.128l0.002-4.373C18.001,23.122,19.124,22,20.503,22h8.993C29.774,22,30,21.774,30,21.496V10.504   C30,10.226,29.774,10,29.496,10h-8.992C19.123,10,18,8.876,18,7.496l0.002-4.363c0-0.302-0.118-0.586-0.332-0.8   C17.457,2.121,17.174,2.004,16.874,2.004z"/></g></svg>