<svg width="48" height="49" viewBox="0 0 48 49" fill="none" xmlns="http://www.w3.org/2000/svg">
<path d="M22.6831 2.05566C23.5388 2.05594 24.3234 2.37479 24.9224 2.94922L24.9497 2.97461L45.2065 21.4727V21.4717C46.0227 22.2175 46.5005 23.2967 46.5005 24.5635C46.5004 25.6923 46.0913 26.689 45.3618 27.4297L45.2124 27.5742H45.2114L24.9224 46.1631L24.9087 46.1748L24.896 46.1875C24.3425 46.7197 23.5916 47.0305 22.6597 47.0547C21.875 47.0486 21.1352 46.7619 20.5513 46.2344L20.4351 46.124C19.8288 45.5176 19.4977 44.7186 19.4976 43.8613L19.5005 37.3184V37.3174C19.5003 36.0721 18.4899 35.0616 17.2446 35.0615H3.75635C2.51334 35.0614 1.50049 34.0487 1.50049 32.8057V16.3164C1.50049 15.0753 2.51295 14.0616 3.75635 14.0615H17.2456C18.4928 14.0615 19.5002 13.0494 19.5005 11.8076L19.5034 5.24707V5.24609C19.5035 3.4961 20.9322 2.06252 22.6831 2.05566Z"/>
</svg>
