<svg xmlns="http://www.w3.org/2000/svg" xmlns:xlink="http://www.w3.org/1999/xlink" version="1.1" x="0px" y="0px" viewBox="0 0 32 32" style="enable-background:new 0 0 32 32;" xml:space="preserve"><g><path d="M15.123,32.004c-0.83,0-1.614-0.324-2.205-0.912c-0.593-0.592-0.92-1.38-0.92-2.218L12,24.512   c0-0.278-0.226-0.504-0.504-0.504H2.504C1.123,24.008,0,22.885,0,21.504V10.511c0-1.38,1.123-2.503,2.504-2.503h8.993   C11.775,8.008,12,7.782,12,7.505l0.002-4.374c0-1.719,1.4-3.122,3.119-3.127c0.827,0,1.599,0.311,2.186,0.874L30.812,13.21   C31.578,13.91,32,14.904,32,16.009c0,1.072-0.42,2.046-1.184,2.745L17.29,31.146C16.719,31.695,15.968,31.984,15.123,32.004z    M2.504,10.008C2.226,10.008,2,10.234,2,10.511v10.993c0,0.278,0.226,0.504,0.504,0.504h8.992c1.381,0,2.504,1.123,2.504,2.504   l-0.002,4.362c0,0.303,0.118,0.587,0.333,0.801c0.213,0.212,0.496,0.329,0.796,0.329c0.001,0,0.003,0,0.004,0   c0.299,0,0.579-0.112,0.792-0.316l13.544-12.408C29.811,16.964,30,16.513,30,16.009c0-0.38-0.093-0.917-0.536-1.322L15.94,2.338   c-0.231-0.221-0.512-0.334-0.807-0.334c-0.626,0.002-1.13,0.508-1.131,1.128L14,7.505c0,1.379-1.123,2.502-2.503,2.502H2.504z"/></g></svg>