<svg width="25" height="24" viewBox="0 0 25 24" fill="none" xmlns="http://www.w3.org/2000/svg">
<g clip-path="url(#clip0_85_1601)">
<path d="M11.9975 23.994C16.3928 24.0208 20.4514 21.6369 22.5075 17.7332C24.3253 14.7087 24.5011 10.808 23.3538 7.5033C22.2781 4.9704 20.3441 2.7176 17.9215 1.38858C16.801 0.810478 15.5256 0.536328 14.289 0.268139C8.04017 -1.04003 2.03272 2.56265 0.429545 8.78465C-0.434622 11.398 0.152415 14.2378 0.942085 16.8095C1.43675 18.1475 2.39925 19.253 3.34387 20.3168C5.47151 22.7097 8.74343 24.0953 11.9438 23.994H12.0004H11.9975ZM11.9945 1.05781C13.7467 1.18594 15.6299 1.56439 17.1497 2.38386C19.2118 3.60859 21.0235 5.50678 21.8907 7.75659C22.8979 10.5547 23.0201 13.8803 21.6463 16.583C19.9985 19.8728 18.0496 21.7114 14.4112 22.5934C9.56886 23.5291 3.92495 21.0856 2.03272 16.3744C1.29967 14.6222 0.691774 12.7181 1.13578 10.811C1.38907 9.61306 1.69898 8.37641 2.17278 7.26193C3.86833 3.71289 8.01038 1.12635 11.9379 1.05781H11.9945Z" fill="black"/>
<path d="M11.6665 12.4202C11.9257 13.0936 15.296 16.738 15.9516 16.0199C16.0946 15.7785 15.6774 15.0395 15.0397 14.3809C13.511 12.9089 12.185 11.7169 12.3846 9.43432C12.3876 8.52248 12.5187 7.55104 12.2088 6.68985C12.0449 6.20413 11.6873 5.99554 11.4519 6.59747C11.2344 7.12193 11.2046 7.84306 11.1897 8.4599C11.1629 9.75317 11.0228 11.2312 11.6397 12.3695L11.6665 12.4231V12.4202Z" fill="black"/>
<path d="M11.9881 4.57708C12.4261 4.54132 12.5334 3.9513 12.5394 3.51922C12.5751 3.02754 12.5453 2.00544 11.8242 2.17827C11.4309 2.31535 11.3713 2.92324 11.3802 3.32553C11.3653 3.78443 11.41 4.55026 11.9434 4.58006H11.9881V4.57708Z" fill="black"/>
<path d="M5.98915 6.77324C6.29608 6.98481 6.72518 6.91627 6.85033 6.54974C7.09171 5.92993 5.84313 4.69924 5.22332 4.86611C4.19526 5.31309 5.43489 6.38883 5.93849 6.74344L5.98617 6.77324H5.98915Z" fill="black"/>
<path d="M4.57414 11.9195C4.60096 11.1924 2.13063 11.1775 2.16341 11.9404C2.16341 12.4738 2.9352 12.5364 3.38814 12.5155C3.84704 12.5155 4.54732 12.4589 4.57414 11.9672V11.9225V11.9195Z" fill="black"/>
<path d="M5.42027 19.0355C5.98645 18.9998 7.50917 17.4979 6.65394 17.0271C6.27848 16.8364 5.78084 17.2089 5.49477 17.5039C5.23552 17.7631 4.94349 18.0522 4.88687 18.4038C4.83323 18.7048 5.05673 19.0206 5.36961 19.0355H5.42027Z" fill="black"/>
<path d="M11.997 21.7382C12.6317 21.6041 12.5244 20.7519 12.5274 20.2572C12.5304 19.8579 12.3456 19.1815 11.8271 19.3484C11.4367 19.4854 11.3742 20.1142 11.3861 20.5224C11.3861 20.9575 11.398 21.7055 11.9523 21.7412H11.997V21.7382Z" fill="black"/>
<path d="M18.1533 18.9372C18.4721 19.1518 18.931 19.0713 19.0145 18.672C19.1128 18.1386 18.5645 17.638 18.192 17.2923C17.8195 16.9228 17.1223 16.8215 16.9911 17.3966C16.9286 18.0611 17.6467 18.5439 18.1026 18.9074L18.1533 18.9372Z" fill="black"/>
<path d="M19.9501 12.4946C20.4984 12.4976 21.5474 12.7062 21.7738 12.0327C21.8424 11.2103 20.2451 11.3176 19.7058 11.4695C19.0472 11.696 19.2975 12.4201 19.8965 12.4857L19.9501 12.4946Z" fill="black"/>
<path d="M17.5758 6.8716C18.1599 6.80902 19.6915 5.3757 18.8154 4.86018C18.4191 4.63371 17.8917 5.06877 17.5967 5.38464C17.1259 5.78096 16.655 6.68685 17.5222 6.8716H17.5728H17.5758Z" fill="black"/>
</g>
<defs>
<clipPath id="clip0_85_1601">
<rect width="24.0775" height="24" fill="white"/>
</clipPath>
</defs>
</svg>
